<svg xmlns="http://www.w3.org/2000/svg" width="512" height="512" viewBox="0 0 512 512">
  <!-- Background circle -->
  <circle cx="256" cy="256" r="240" fill="#1f2937" stroke="#374151" stroke-width="32"/>
  
  <!-- Barbell design -->
  <!-- Left weight plates stack (multiple plates for realism) -->
  <!-- Outer plate -->
  <ellipse cx="100" cy="256" rx="45" ry="75" fill="#4b5563" stroke="#6b7280" stroke-width="3"/>
  <ellipse cx="100" cy="256" rx="35" ry="65" fill="#374151"/>
  <circle cx="100" cy="256" r="15" fill="#1f2937"/>
  
  <!-- Middle plate -->
  <ellipse cx="115" cy="256" rx="40" ry="70" fill="#6b7280" stroke="#9ca3af" stroke-width="2"/>
  <ellipse cx="115" cy="256" rx="30" ry="60" fill="#4b5563"/>
  <circle cx="115" cy="256" r="12" fill="#1f2937"/>
  
  <!-- Inner plate -->
  <ellipse cx="130" cy="256" rx="35" ry="65" fill="#9ca3af" stroke="#d1d5db" stroke-width="2"/>
  <ellipse cx="130" cy="256" rx="25" ry="55" fill="#6b7280"/>
  <circle cx="130" cy="256" r="10" fill="#1f2937"/>
  
  <!-- Right weight plates stack -->
  <!-- Outer plate -->
  <ellipse cx="412" cy="256" rx="45" ry="75" fill="#4b5563" stroke="#6b7280" stroke-width="3"/>
  <ellipse cx="412" cy="256" rx="35" ry="65" fill="#374151"/>
  <circle cx="412" cy="256" r="15" fill="#1f2937"/>
  
  <!-- Middle plate -->
  <ellipse cx="397" cy="256" rx="40" ry="70" fill="#6b7280" stroke="#9ca3af" stroke-width="2"/>
  <ellipse cx="397" cy="256" rx="30" ry="60" fill="#4b5563"/>
  <circle cx="397" cy="256" r="12" fill="#1f2937"/>
  
  <!-- Inner plate -->
  <ellipse cx="382" cy="256" rx="35" ry="65" fill="#9ca3af" stroke="#d1d5db" stroke-width="2"/>
  <ellipse cx="382" cy="256" rx="25" ry="55" fill="#6b7280"/>
  <circle cx="382" cy="256" r="10" fill="#1f2937"/>
  
  <!-- Barbell bar with sleeves -->
  <!-- Main bar -->
  <rect x="165" y="248" width="182" height="16" fill="#d1d5db" rx="8"/>
  
  <!-- Left sleeve -->
  <rect x="145" y="246" width="35" height="20" fill="#9ca3af" rx="10"/>
  
  <!-- Right sleeve -->
  <rect x="332" y="246" width="35" height="20" fill="#9ca3af" rx="10"/>
  
  <!-- Center knurling -->
  <rect x="236" y="250" width="40" height="12" fill="#9ca3af" rx="2"/>
  <!-- Knurling pattern -->
  <g stroke="#6b7280" stroke-width="1" opacity="0.6">
    <line x1="240" y1="252" x2="240" y2="262"/>
    <line x1="244" y1="252" x2="244" y2="262"/>
    <line x1="248" y1="252" x2="248" y2="262"/>
    <line x1="252" y1="252" x2="252" y2="262"/>
    <line x1="256" y1="252" x2="256" y2="262"/>
    <line x1="260" y1="252" x2="260" y2="262"/>
    <line x1="264" y1="252" x2="264" y2="262"/>
    <line x1="268" y1="252" x2="268" y2="262"/>
    <line x1="272" y1="252" x2="272" y2="262"/>
  </g>
  
  <!-- Collars -->
  <rect x="158" y="246" width="12" height="20" fill="#6b7280" rx="6"/>
  <rect x="342" y="246" width="12" height="20" fill="#6b7280" rx="6"/>
  
  <!-- Text -->
  <text x="256" y="380" text-anchor="middle" font-family="Arial, sans-serif" font-size="48" font-weight="bold" fill="#e5e7eb">UB</text>
</svg>