<svg xmlns="http://www.w3.org/2000/svg" width="512" height="512" viewBox="0 0 512 512">
  <!-- Background circle -->
  <circle cx="256" cy="256" r="240" fill="#1f2937" stroke="#374151" stroke-width="32"/>
  
  <!-- Weight plate design -->
  <!-- Outer rim -->
  <circle cx="256" cy="256" r="180" fill="#4b5563" stroke="#6b7280" stroke-width="8"/>
  
  <!-- Main plate surface -->
  <circle cx="256" cy="256" r="165" fill="#374151"/>
  
  <!-- Inner detail ring -->
  <circle cx="256" cy="256" r="120" fill="none" stroke="#6b7280" stroke-width="4"/>
  
  <!-- Center hole -->
  <circle cx="256" cy="256" r="45" fill="#1f2937" stroke="#4b5563" stroke-width="6"/>
  
  <!-- Weight markings (radial lines for authentic look) -->
  <g stroke="#6b7280" stroke-width="3" opacity="0.7">
    <line x1="256" y1="110" x2="256" y2="130"/>
    <line x1="326" y1="140" x2="316" y2="150"/>
    <line x1="372" y1="186" x2="362" y2="196"/>
    <line x1="402" y1="256" x2="382" y2="256"/>
    <line x1="372" y1="326" x2="362" y2="316"/>
    <line x1="326" y1="372" x2="316" y2="362"/>
    <line x1="256" y1="402" x2="256" y2="382"/>
    <line x1="186" y1="372" x2="196" y2="362"/>
    <line x1="140" y1="326" x2="150" y2="316"/>
    <line x1="110" y1="256" x2="130" y2="256"/>
    <line x1="140" y1="186" x2="150" y2="196"/>
    <line x1="186" y1="140" x2="196" y2="150"/>
  </g>
  
  <!-- Circular text "UNBROKEN" -->
  <defs>
    <path id="circle-text" d="M 256,256 m -140,0 a 140,140 0 1,1 280,0 a 140,140 0 1,1 -280,0"/>
  </defs>
  
  <text font-family="Arial, sans-serif" font-size="42" font-weight="bold" fill="#e5e7eb" letter-spacing="8">
    <textPath href="#circle-text" startOffset="50%" text-anchor="middle">
      UNBROKEN
    </textPath>
  </text>
</svg>